# xmcd
# 
# Track frame offsets:
#     150
#     15791
#     33747
#     46261
#     61263
#     105377
#     120746
#     137746
#     156425
#     168909
#     196632
#     216768
#     231309
#     246147
#     257346
#     269072
# 
# Disc length: 3784
# 
# Revision: 1
# Processed by: cddbd v1.5.2PL0 Copyright (c) Steve Scherf et al.
# Submitted via: fre:ac v1.0.31
# 
DISCID=d50ec610
DTITLE=Various Artist - Timeless Soul Ballads - Slow Tunes CD2
DYEAR=2005
DGENRE=Soul
TTITLE0=Harold Melvin and The Blue Notes - If You Don't Know Me By Now
TTITLE1=Ray Charles - I Can't Stop Loving You
TTITLE2=Percy Sledge - When A Man Loves Woman
TTITLE3=Dionne Warwick - Don't Make Me Over
TTITLE4=Marvin Gaye - Sexual Healing
TTITLE5=Bobby Caldwell - What You Want Do For Love
TTITLE6=Major Harris - Love Won't Let Me Wait
TTITLE7=B.B. King and Gladys Knight - Please Send Me Someone To Love
TTITLE8=Jimmy Ruffin - I've Passed This Way Before
TTITLE9=The Dells - Stay In My Corner
TTITLE10=The Dramatics - In The Rain
TTITLE11=Eddie Holman - Hey There Lonely Girl
TTITLE12=The Originals - Baby,I'm For Real
TTITLE13=Salomon Burke - If You Need Me
TTITLE14=Barbara Lynn - You'll Lose A Good Thing
TTITLE15=Al Jarreau - Let's Stay Together
EXTD=
EXTT0=
EXTT1=
EXTT2=
EXTT3=
EXTT4=
EXTT5=
EXTT6=
EXTT7=
EXTT8=
EXTT9=
EXTT10=
EXTT11=
EXTT12=
EXTT13=
EXTT14=
EXTT15=
PLAYORDER=
